<svg viewBox="0 0 32 32" width="20" height="20" xmlns="http://www.w3.org/2000/svg">
									<path d="M16 3.987c-6.904 0-12.5 5.596-12.5 12.5 0 5.523 3.58 10.208 8.548 11.86.626.116.854-.27.854-.602 0-.296-.01-1.083-.017-2.125-3.477.755-4.21-1.676-4.21-1.676-.57-1.444-1.39-1.828-1.39-1.828-1.134-.776.087-.76.087-.76 1.255.088 1.915 1.288 1.915 1.288 1.115 1.91 2.926 1.358 3.638 1.04.113-.81.436-1.36.793-1.673-2.775-.313-5.694-1.386-5.694-6.176 0-1.364.488-2.48 1.287-3.354-.127-.317-.556-1.588.124-3.31 0 0 1.05-.335 3.438 1.283a11.964 11.964 0 0 1 3.13-.42c1.062.004 2.13.143 3.13.42 2.386-1.618 3.434-1.282 3.434-1.282.682 1.723.253 2.994.124 3.31.8.874 1.285 1.99 1.285 3.354 0 4.803-2.923 5.86-5.707 6.168.45.387.848 1.15.848 2.317 0 1.67-.015 3.017-.015 3.427 0 .335.225.724.86.602 4.963-1.658 8.54-6.34 8.54-11.86 0-6.905-5.596-12.5-12.5-12.5" fill="#fff"/>
								</svg>